PathFileType	4	(X/Y/Z)	C:\Users\Basilio\Documents\Thesis Gigler\squatting_fais\c3dfiles\075\SLS_back_pre2\markers_experimental.trc
DataRate	CameraRate	NumFrames	NumMarkers	Units	OrigDataRate	OrigDataStartFrame	OrigNumFrames
200.000000	200.000000	4	61	mm	200.000000	332	1329
Frame#	Time	FHD			LBHD			C7			T10			CLAV			LSHO			LUUPA			LMUPA			LDUPA			LLEP			LMEP			LRAD			LUL			LRFIN			RSHO			RUPA1			RMUPA			RDUPA			RLEP			RMEP			RRAD			RUL			RUFIN			LASI			RASI			USACR			LSACR			RSACR			LTHI1			LTHI2			LTHI3			LTHI4			LLFC			LMFC			LTIB1			LTIB2			LTIB3			LTIB4			LLMAL			LMMAL			LHEE			LMT1			LMT2			LMT5			RTHI			RTHI2			RTHI3			RTHI4			RLFC			RMFC			RTIB1			RTIB2			RTIB3			RTIB4			RLMAL			RMMAL			RHEE			RMT1			RMT2			RMT5			RBHD			
		X1	Y1	Z1	X2	Y2	Z2	X3	Y3	Z3	X4	Y4	Z4	X5	Y5	Z5	X6	Y6	Z6	X7	Y7	Z7	X8	Y8	Z8	X9	Y9	Z9	X10	Y10	Z10	X11	Y11	Z11	X12	Y12	Z12	X13	Y13	Z13	X14	Y14	Z14	X15	Y15	Z15	X16	Y16	Z16	X17	Y17	Z17	X18	Y18	Z18	X19	Y19	Z19	X20	Y20	Z20	X21	Y21	Z21	X22	Y22	Z22	X23	Y23	Z23	X24	Y24	Z24	X25	Y25	Z25	X26	Y26	Z26	X27	Y27	Z27	X28	Y28	Z28	X29	Y29	Z29	X30	Y30	Z30	X31	Y31	Z31	X32	Y32	Z32	X33	Y33	Z33	X34	Y34	Z34	X35	Y35	Z35	X36	Y36	Z36	X37	Y37	Z37	X38	Y38	Z38	X39	Y39	Z39	X40	Y40	Z40	X41	Y41	Z41	X42	Y42	Z42	X43	Y43	Z43	X44	Y44	Z44	X45	Y45	Z45	X46	Y46	Z46	X47	Y47	Z47	X48	Y48	Z48	X49	Y49	Z49	X50	Y50	Z50	X51	Y51	Z51	X52	Y52	Z52	X53	Y53	Z53	X54	Y54	Z54	X55	Y55	Z55	X56	Y56	Z56	X57	Y57	Z57	X58	Y58	Z58	X59	Y59	Z59	X60	Y60	Z60	X61	Y61	Z61	

333	1.66	-278.4892272949219	1719.549682617188	-774.873962402344	-415.706512451172	1593.988037109375	-846.2275390625002	-447.7675170898439	1480.464965820313	-788.8667602539065	-463.5340270996095	1158.354370117188	-794.1448364257815	-304.8611145019532	1421.061401367188	-781.876403808594	-333.9443664550782	1467.136108398438	-921.7664184570315	-189.4400329589844	1371.5634765625	-1017.881164550781	-158.0281982421875	1392.857177734375	-985.6265869140627	-121.6220779418946	1358.710815429688	-1018.503295898438	-38.53990936279298	1342.345092773438	-1004.264038085938	-64.21917724609376	1270.031616210938	-962.8602294921877	nan	nan	nan	175.5214538574219	1348.853271484375	-858.8374633789065	175.9312591552735	1381.90185546875	-756.7111816406251	-347.0824279785157	1453.608764648438	-638.6925048828126	-221.2317962646485	1344.954223632813	-521.4351806640626	-181.8787384033203	1365.845581054688	-542.2075805664064	-155.3854522705078	1324.532470703125	-506.2060546875001	-84.80885314941408	1312.00048828125	-502.8900451660157	-82.47783660888673	1242.853515625	-541.9992065429689	114.2463989257813	1363.61572265625	-689.2368164062501	145.1689147949219	1355.264526367188	-619.5079345703126	186.7577362060547	1398.389282226563	-721.9885253906251	-306.4081420898438	988.7309570312502	-931.7282714843752	-299.7655944824219	986.2680664062502	-678.2427368164064	-460.455535888672	1059.8828125	-802.2817993164065	-467.292205810547	1029.584228515625	-831.2003173828127	-465.7134399414064	1028.422485351563	-773.5264892578127	-317.4721374511719	754.4198608398439	-1016.951171875	-274.0032958984376	681.3232421875001	-1022.16748046875	-231.5475616455079	689.6536254882814	-997.820983886719	-293.6044006347657	624.0512084960939	-1024.933349609375	-299.9522094726563	534.2493896484376	-1020.116333007813	-282.0509948730469	496.669891357422	-892.8477172851565	-364.2531433105469	422.8220825195314	-987.6322021484377	-427.0307922363282	462.9461059570314	-1033.277465820313	-416.0632324218751	424.189910888672	-1016.156188964844	-489.2706909179689	394.3955383300782	-985.9473876953127	-651.4343261718751	410.4783935546876	-998.341979980469	-619.2239379882814	387.0746459960939	-918.1328125000002	-694.4806518554689	451.6608276367189	-950.1688232421877	-648.4879760742189	248.5622863769532	-923.9649047851565	-653.2895507812501	243.1228027343751	-972.352478027344	-693.2297363281251	273.5472412109376	-1017.592956542969	-353.8772277832032	779.7095336914065	-623.4259033203126	-310.5086975097657	730.5769042968751	-628.6890869140626	-279.3472290039063	739.8665771484376	-638.6272583007814	-330.4075622558594	648.6262817382814	-645.4601440429689	-332.6445617675782	496.6402587890626	-685.9136962890626	-295.0978088378907	501.8502502441407	-809.9338378906252	-287.7531433105469	355.4370117187501	-765.8980102539064	-341.4171142578126	275.2940979003907	-715.9840087890626	-305.0228271484376	271.6979370117188	-748.2119750976564	-319.7040710449219	232.1583251953126	-789.3170166015627	-393.4271240234376	114.0663528442383	-764.1970825195314	-365.3587951660157	143.3513336181641	-842.198669433594	-449.9054260253907	98.92799377441409	-823.1068115234377	-246.2140045166016	57.55448150634767	-835.3603515625002	-246.1022949218751	55.14669036865236	-793.1521606445315	-283.9375000000001	33.92755508422852	-741.5072021484376	nan	nan	nan	
334	1.665	-278.3968200683594	1719.568969726563	-774.5855712890627	-415.5681457519532	1594.034790039063	-845.8601684570315	-447.5745239257814	1480.51416015625	-788.5587158203127	-463.3139648437501	1158.441650390625	-793.9532470703127	-304.6837158203126	1421.035400390625	-781.6370849609377	-333.8200683593751	1467.256713867188	-921.409118652344	-189.1349487304688	1371.885009765625	-1017.556518554688	-157.8787536621094	1393.106323242188	-985.0609130859377	-121.182373046875	1359.272338867188	-1018.141906738281	-38.28329086303712	1342.854370117188	-1003.971984863281	-65.22965240478517	1271.068603515625	-961.3033447265627	nan	nan	nan	176.2441711425782	1349.627075195313	-859.1160888671877	176.2969207763672	1382.390258789063	-756.1312255859376	-346.8290405273438	1453.591064453125	-638.4068603515626	-220.899154663086	1344.777709960938	-521.4497070312501	-181.640380859375	1365.733642578125	-542.1381225585939	-154.9418640136719	1324.4404296875	-506.1148071289064	-84.3614959716797	1311.863037109375	-502.9276123046876	-82.1154251098633	1242.78564453125	-542.0915527343751	114.6598510742188	1363.50244140625	-688.6280517578126	145.5876159667969	1355.311767578125	-619.4576416015626	186.9158020019532	1398.622314453125	-721.8603515625001	-306.5057067871094	988.7339477539065	-931.7745361328127	-299.6114196777344	986.2151489257815	-678.3016967773439	-460.4319458007814	1059.967041015625	-802.188415527344	-467.2400817871095	1029.70263671875	-831.0810546875002	-465.6304626464845	1028.543823242188	-773.4290161132815	-317.0443420410157	753.8659057617189	-1016.339538574219	-274.5850830078126	681.0260620117189	-1021.763122558594	-232.0792388916016	689.2113037109376	-997.0754394531252	-294.2015075683594	623.8418579101564	-1024.513793945313	-301.0018920898438	534.1834106445314	-1019.75048828125	-283.3470764160157	496.5374450683595	-892.2557373046877	-366.0216369628907	423.3279724121095	-987.1228027343752	-428.6870422363282	463.9192810058595	-1032.999389648438	-417.9102478027345	425.2491760253907	-1015.687377929688	-491.212371826172	395.8316345214845	-985.0639648437502	-654.0818481445314	413.7439880371095	-998.0616455078127	-621.2570190429689	389.6751708984376	-917.7385864257815	-695.8992309570314	454.9375915527345	-949.758728027344	-652.3790283203126	251.2772827148438	-923.6378173828127	-656.9436645507814	246.0023956298829	-972.1555786132815	-696.7622070312501	277.0126953125001	-1017.365051269531	-353.7171020507813	779.6756591796877	-623.4754028320314	-310.3055114746094	730.5509033203126	-628.7863769531251	-279.1727294921876	739.8874511718751	-638.7816162109376	-330.2814941406251	648.6215209960939	-645.5587768554689	-332.5681762695313	496.6154785156251	-686.0002441406251	-295.2302551269532	501.9069824218751	-810.051452636719	-287.7798767089844	355.4318542480469	-766.0244750976564	-341.3562622070313	275.3615722656251	-716.0985107421876	-305.0444030761719	271.7190551757813	-748.3781738281251	-319.2662963867188	232.1038970947266	-789.0950927734377	-393.3993530273439	114.0852661132813	-764.2525634765626	-365.2092285156251	143.6917572021485	-842.8380126953127	-449.8836669921876	98.92607116699222	-823.1265869140627	-246.244857788086	57.43412399291994	-835.356872558594	-246.0474548339844	55.1787796020508	-793.2017211914065	-283.9371643066407	33.95464706420899	-741.4688720703126	nan	nan	nan	
335	1.67	-278.2365722656251	1719.589477539063	-774.327087402344	-415.6493225097657	1594.161987304688	-845.5405273437502	-447.4331054687501	1480.519775390625	-788.2410888671877	-463.1836853027345	1158.48974609375	-793.7774658203127	-304.4085083007813	1421.08154296875	-781.3688964843752	-333.5988464355469	1467.389404296875	-920.9890136718752	-188.8036193847657	1372.25341796875	-1017.169006347656	-157.5424346923828	1393.463989257813	-984.7414550781252	-120.8762283325196	1359.681396484375	-1017.808349609375	-38.04491806030274	1343.399169921875	-1003.558959960938	-64.71713256835939	1271.425537109375	-960.7422485351565	nan	nan	nan	176.6405944824219	1350.122436523438	-859.0120849609377	177.1839599609375	1382.615112304688	-756.0256958007814	-346.6105957031251	1453.466552734375	-638.1326904296876	-220.5098724365235	1344.689819335938	-521.2683715820314	-181.3074035644532	1365.6181640625	-542.0064086914064	-154.670883178711	1324.217529296875	-506.1285095214845	-83.9649124145508	1311.782958984375	-502.9085083007814	-81.73085784912111	1242.791625976563	-542.1755981445314	115.2206573486328	1363.6005859375	-688.5973510742189	145.955078125	1355.281005859375	-619.4147338867189	187.6268920898438	1398.6123046875	-721.5170288085939	-306.5409240722657	988.7365722656252	-931.8043212890627	-299.5325622558594	986.1765136718752	-678.3471069335939	-460.3491210937501	1060.060546875	-802.0896606445315	-467.2278137207032	1029.81103515625	-830.9827880859377	-465.556610107422	1028.62939453125	-773.3121337890627	-317.2770996093751	753.7567749023439	-1016.163330078125	-273.7082214355469	681.0596313476564	-1021.501342773438	-232.0653228759766	689.1817016601564	-996.8262939453127	-294.8827819824219	623.5878906250001	-1024.123901367188	-301.6585388183594	534.0352783203126	-1019.235168457031	-284.8302001953126	496.5843200683595	-891.6824340820315	-367.8878479003907	423.6719360351564	-986.4534912109377	-430.0932006835939	465.1018066406251	-1032.43310546875	-419.4902954101564	425.687713623047	-1015.02490234375	-492.6581115722657	396.9387817382814	-983.689147949219	-654.8602294921876	416.3705139160157	-997.542907714844	-623.3646240234376	392.0950622558595	-917.3129882812502	-697.0616455078126	458.1175537109376	-949.2547607421877	-656.2611083984376	253.8901367187501	-922.9270019531252	-660.6517333984376	248.7248840332032	-971.9328613281252	-699.2772827148439	280.1793212890626	-1017.218078613281	-353.5320739746094	779.6861572265627	-623.5914916992189	-310.1231079101563	730.5838012695314	-628.8355102539064	-279.0479736328126	739.8987426757814	-638.9158325195314	-330.1510314941407	648.6583862304689	-645.6268310546876	-332.4667663574219	496.6296691894532	-686.1340942382814	-295.1429443359376	501.9319152832032	-810.2246093750002	-287.7769775390626	355.4828491210938	-766.1730346679689	-341.2768859863282	275.3142089843751	-716.3129882812501	-305.1813354492188	271.8019409179688	-748.6959838867189	-319.6498413085938	232.1665039062501	-789.4855957031252	-393.3771972656251	114.106689453125	-764.3155517578126	-366.0424804687501	143.8866882324219	-843.0789184570315	-449.8633422851564	98.93888092041018	-823.160583496094	-246.4449462890626	57.30858230590822	-835.5198974609377	-246.0785522460938	55.14736557006837	-793.2243652343752	-283.8439941406251	33.96786117553712	-741.4541625976564	nan	nan	nan	
336	1.675	-278.2117309570313	1719.647216796875	-774.0745239257815	-415.5969238281251	1594.05322265625	-845.280700683594	-447.2752075195314	1480.58447265625	-787.917175292969	-463.0083923339845	1158.57421875	-793.5897216796877	-304.1190185546876	1421.0615234375	-781.0657958984377	-333.4374084472657	1467.517456054688	-920.6846313476565	-188.4869079589844	1372.729858398438	-1016.773986816406	-157.013900756836	1393.7158203125	-984.6065063476565	-120.3121643066407	1360.164428710938	-1017.344360351563	-37.70310211181641	1344.0263671875	-1003.19384765625	-65.5508270263672	1272.533081054688	-961.2695312500002	nan	nan	nan	177.090576171875	1350.49560546875	-858.8865356445315	177.6608581542969	1382.873413085938	-755.8548583984376	-346.3128967285157	1453.424560546875	-637.8541870117189	-220.1421661376954	1344.548706054688	-521.1139526367189	-180.9702911376953	1365.41162109375	-541.9165039062501	-154.2457427978516	1324.139526367188	-506.0673217773439	-83.57287597656251	1311.656860351563	-502.9014892578126	-81.39498138427736	1242.711181640625	-542.3990478515626	115.4166564941407	1363.868530273438	-688.3197021484376	146.3404846191407	1355.23095703125	-619.3839721679689	188.1459503173828	1398.935180664063	-721.2817382812501	-306.6592102050782	988.715026855469	-931.892272949219	-299.4248657226563	986.1267700195315	-678.4309082031251	-460.2494506835939	1060.171752929688	-802.070739746094	-467.2024230957032	1029.923950195313	-830.929626464844	-465.4522705078126	1028.7080078125	-773.2083129882815	-317.6598510742188	753.5156860351564	-1015.855285644531	-274.6436462402344	680.4129028320314	-1020.792785644531	-232.9783325195313	688.5357666015626	-996.1660766601565	-295.4801635742188	623.2861938476564	-1023.692932128906	-302.3426818847657	533.9096679687501	-1018.620178222656	-286.1085205078126	496.5222167968751	-891.1702270507815	-370.0041198730469	424.0590820312501	-984.9988403320315	-431.3236083984376	465.7319946289064	-1031.900390625	-421.0505371093751	426.6970825195314	-1014.488647460938	-494.9526672363282	398.6587219238282	-983.4389648437502	-656.9353027343751	419.4104614257814	-997.2458496093752	-625.2964477539064	394.5870361328126	-916.9127197265627	-698.3165283203126	461.4693603515626	-948.793395996094	-659.0674438476564	256.9701538085938	-923.0371704101565	-664.2346191406251	251.7242279052735	-971.629577636719	-702.2367553710939	283.5674133300782	-1016.919860839844	-353.3863525390626	779.6903076171877	-623.5871582031251	-309.9985351562501	730.5840454101564	-628.9879760742189	-278.9194335937501	739.9006347656251	-639.1217041015626	-330.0059509277344	648.6860961914064	-645.6398925781251	-332.4435119628907	496.6422424316407	-686.2349853515626	-295.0378112792969	501.916229248047	-810.4048461914065	-287.7809448242188	355.5189514160157	-766.3042602539064	-341.2077941894532	275.3450012207032	-716.4618530273439	-304.7983093261719	271.7415161132813	-748.6689453125001	-319.2896728515626	232.1068115234376	-789.3580322265627	-393.2920837402345	114.1379623413086	-764.3870239257814	-365.2048950195313	143.7270660400391	-843.0992431640627	-449.8228454589845	98.92115020751956	-823.1804809570315	-246.3805694580079	57.16044998168947	-835.4769287109377	-246.0113677978516	55.15426635742189	-793.2512817382815	-283.9188537597657	33.96760177612305	-741.4871826171876	nan	nan	nan	
